<svg xmlns="http://www.w3.org/2000/svg" xml:space="preserve"  viewBox='0 0 1080 1080'>
  <path d="M165.2 90.4c-2.93.41-3.6.73-3.6 1.7 0 1.66 1.74 5.56 2.96 6.63.67.59 2.04 1.9 3.04 2.91 1 1.02 2.8 2.48 4 3.25 4.17 2.67 9.84 8.1 11.07 10.62l1.13 2.29.2 81.2c.21 87.08.17 91.03-1.04 92.92-1.63 2.55-5.99 6-7.94 6.3-3.17.47-12.65 0-14.3-.72-2.55-1.1-5.08-6.08-5.06-9.95.33-69.32.3-142.21-.07-144.32-.61-3.6-3.85-9.5-6.97-12.72a145.22 145.22 0 0 0-6.78-6.71c-1.63-1.54-4.2-4-5.72-5.46-3.8-3.67-6.65-4.6-13.32-4.39-8.43.28-23.7.22-33.2-.11-14-.5-20.82 1.04-23.11 5.23-2.15 3.93-2.08.58-2.08 88.93-.01 77.12-.05 81.87-.71 83.05a45.19 45.19 0 0 1-6.15 7.75c-3.93 3.83-3.82 7.61.36 12.23 3.05 3.37 5.12 5.9 5.73 6.97.46.83.6 6.48.76 32.8l.2 31.82 1.31 2.67c2.74 5.55 21.76 22.33 24.24 21.38 2.13-.81 2.03 1.18 2.25-45.25.16-32 .33-43.1.68-43.9.74-1.66 3.25-4.25 5.29-5.44l1.83-1.08h11c12.23 0 12.85.12 16.08 2.94 3.19 2.8 2.9-3.6 3.12 68.66.17 54.47.29 64.55.76 65.4.73 1.29 4.25 5.38 6 6.97.73.68 2.03 1.95 2.87 2.83 8.3 8.69 10.81 10.15 13.53 7.9 1.52-1.26 1.56-3.36 1.59-72.7.02-43.96.17-69.12.44-71.16.49-3.79 2.71-8.33 4.74-9.7 4.01-2.71 16.18-2.2 18.25.75.34.49 1.37 1.48 2.29 2.21.92.73 1.95 1.72 2.3 2.21.57.8.65 9.89.84 91.49.16 71.07.31 90.9.7 92 .92 2.57 11.6 12.8 13.36 12.8 1.9 0 11.96-9.44 13.13-12.32.53-1.3.63-12.74.8-91.68.15-66.52.32-90.46.66-91.2.25-.55 1.88-2.38 3.62-4.07 3.76-3.64 4.04-3.73 11.92-3.73 7.35 0 8 .3 10.62 4.93 2.92 5.14 2.8 1.94 2.83 76.87.03 70.9.05 71.57 1.95 73.3 2 1.82 3.27 1.53 6.17-1.4 1.36-1.38 4.08-3.85 6.04-5.5 4.98-4.19 8.14-7.5 9.05-9.5.76-1.65.78-3.35.87-65.4.11-72.55-.3-65.5 4.01-69.58 3.81-3.62 3.74-3.6 16.26-3.45 12.53.15 13.77.47 16.53 4.23 3.1 4.24 2.86.53 2.97 44.3.06 23.84.25 40.06.5 41.4 1 5.49 5.4 4.7 13.04-2.35 1.34-1.24 4.27-3.85 6.5-5.82 3.85-3.37 4.8-4.59 7.07-9.03.39-.77.56-7.67.73-30 .27-35.8.26-35.76 5.29-41.5 4.7-5.37 4.95-9.65.82-14.04-2.82-3.01-4.47-5.6-5.28-8.3-.47-1.55-.56-14.44-.59-78.74-.03-89.03.04-87.11-3.49-93.16-2.17-3.72-9.87-4.58-31.69-3.54-5.14.24-10.53.23-15.8-.05-16.12-.85-17.59-.55-22.75 4.6-1.73 1.72-3.27 3.13-3.42 3.13-.16 0-.89.8-1.63 1.8-.74.99-1.92 2.19-2.62 2.67-.7.48-1.87 1.74-2.6 2.81a59.45 59.45 0 0 1-3.4 4.34c-2.64 3.05-4.35 6.32-4.92 9.38-.64 3.53-.71 110.37-.07 118.2.27 3.36.42 10.7.34 17.46l-.13 11.66-2.32 3.42c-3.03 4.45-3.88 4.82-11.24 4.82-7.37 0-7.73-.1-11.35-3.41-1.7-1.54-3.36-3.3-3.69-3.88-.76-1.36-1.18-164.66-.44-170.74.6-4.93 1.84-7.3 4.99-9.56 3.69-2.66 7.36-5.71 9.83-8.18a46.8 46.8 0 0 1 3.69-3.32c.94-.71 2.07-2.29 3.15-4.36 2.8-5.38 5.23-5.05-36.02-5.04-16.83 0-31.59.15-32.8.32m-44.41 30.97c2.44.8 7.5 5.56 8.75 8.24.6 1.28.67 8.08.77 80.58.11 88.66.34 81.88-2.79 85-3.42 3.43-3.44 3.43-16.01 3.35-14.12-.08-15.63-.53-17.86-5.29L92.6 291v-83c0-91.46-.18-84.72 2.3-86.06 3.1-1.68 21.31-2.08 25.89-.58m180.28-.3c1.9.9 3.23 3.05 3.91 6.32.89 4.23.92 157 .04 160.8-.66 2.85-2.66 7.56-3.7 8.7-1.2 1.34-3.57 1.59-15.29 1.62-13.17.03-13.47-.03-17.1-3.58-3.4-3.3-3.13 3.88-3.13-83.12 0-87.23-.24-80.4 2.95-83.93.83-.92 2-2.33 2.6-3.14 2.66-3.57 5.73-4.28 18.59-4.3 8.27-.03 9.95.07 11.13.63" style="stroke:none;stroke-width:50;stroke-dasharray:none;stroke-linecap:butt;stroke-dashoffset:0;stroke-linejoin:miter;stroke-miterlimit:4;fill:#c71717;fill-rule:evenodd;opacity:1" transform="translate(341.48 238.17)" vector-effect="non-scaling-stroke"/>
</svg>